<svg width="321.997" height="52.959" viewBox="0 0 321.997 52.959" xmlns="http://www.w3.org/2000/svg"><g id="svgGroup" stroke-linecap="round" fill-rule="evenodd" font-size="9pt" stroke="#FC1683" stroke-width="1mm" fill="#FC1683" style="stroke:#FC1683;stroke-width:1mm;fill:#FC1683"><path d="M 42.646 20.464 L 42.646 22.935 A 28.312 28.312 0 0 0 43.169 28.549 Q 44.203 33.654 47.279 37.007 Q 51.912 42.056 58.894 42.056 Q 64.222 42.056 67.627 39.819 A 11.104 11.104 0 0 0 69.556 38.215 Q 73.235 34.375 73.772 29.004 L 73.799 28.735 L 68.643 28.735 L 68.616 29.004 A 10.818 10.818 0 0 1 67.564 32.747 A 9.908 9.908 0 0 1 65.876 35.154 A 7.512 7.512 0 0 1 62.532 37.165 Q 61.333 37.53 59.886 37.621 A 15.765 15.765 0 0 1 58.894 37.651 A 9.549 9.549 0 0 1 51.657 34.541 A 12.377 12.377 0 0 1 50.958 33.73 A 13.323 13.323 0 0 1 48.656 29.155 Q 48.106 27.279 47.935 25.042 A 27.523 27.523 0 0 1 47.856 22.935 L 47.856 20.464 A 28.469 28.469 0 0 1 48.124 16.419 Q 48.769 11.936 50.972 9.373 A 10.175 10.175 0 0 1 55.004 6.444 A 10.592 10.592 0 0 1 58.894 5.747 Q 62.108 5.747 64.254 6.798 A 7.148 7.148 0 0 1 66.226 8.204 A 8.332 8.332 0 0 1 68.625 13.762 A 11.045 11.045 0 0 1 68.643 14.395 L 68.643 14.663 L 73.799 14.663 L 73.799 14.395 A 12.32 12.32 0 0 0 70.081 5.41 A 15.4 15.4 0 0 0 69.838 5.17 A 13.08 13.08 0 0 0 63.888 1.927 Q 61.622 1.343 58.894 1.343 A 15.809 15.809 0 0 0 52.318 2.685 A 15.429 15.429 0 0 0 47.279 6.392 A 16.673 16.673 0 0 0 43.549 13.272 Q 42.646 16.481 42.646 20.464 Z M 251.287 26.694 L 251.287 27.554 A 19.095 19.095 0 0 0 251.821 32.191 A 13.893 13.893 0 0 0 254.791 38 A 11.335 11.335 0 0 0 261.064 41.66 A 17.317 17.317 0 0 0 264.875 42.056 A 15.494 15.494 0 0 0 268.057 41.745 A 11.207 11.207 0 0 0 271.71 40.31 Q 274.517 38.564 275.859 36.55 L 272.637 33.999 Q 271.428 35.61 269.495 36.792 A 7.937 7.937 0 0 1 266.652 37.831 A 10.626 10.626 0 0 1 264.875 37.974 A 9.871 9.871 0 0 1 262.323 37.664 A 6.594 6.594 0 0 1 258.457 34.952 A 11.621 11.621 0 0 1 256.639 30.433 A 15.898 15.898 0 0 1 256.389 27.554 L 256.389 26.694 Q 256.389 22.317 258.35 19.296 A 6.339 6.339 0 0 1 262.971 16.365 A 9.216 9.216 0 0 1 264.285 16.274 A 7.974 7.974 0 0 1 266.356 16.528 A 5.558 5.558 0 0 1 269.307 18.423 A 7.764 7.764 0 0 1 271.01 22.698 A 10.041 10.041 0 0 1 271.052 23.633 L 271.052 24.277 L 254.348 24.277 L 254.348 28.252 L 276.074 28.252 L 276.074 26.211 Q 276.074 19.766 272.959 15.979 Q 269.844 12.192 264.07 12.192 A 13.309 13.309 0 0 0 259.677 12.888 A 11.264 11.264 0 0 0 254.791 16.248 A 14.108 14.108 0 0 0 251.629 22.928 A 19.817 19.817 0 0 0 251.287 26.694 Z M 104.36 1.88 L 89.482 41.25 L 94.639 41.25 L 105.488 11.709 A 28.229 28.229 0 0 0 105.926 10.41 A 24.869 24.869 0 0 0 106.052 9.99 A 24.1 24.1 0 0 0 106.482 8.271 L 106.75 8.271 A 24.1 24.1 0 0 0 107.18 9.99 A 26.502 26.502 0 0 0 107.588 11.269 A 30.054 30.054 0 0 0 107.744 11.709 L 118.486 41.25 L 123.857 41.25 L 108.979 1.88 L 104.36 1.88 Z M 198.838 48.179 L 198.838 52.422 A 8.915 8.915 0 0 0 200.396 52.82 A 9.765 9.765 0 0 0 200.422 52.825 A 9.939 9.939 0 0 0 201.256 52.921 Q 201.696 52.954 202.187 52.958 A 16.798 16.798 0 0 0 202.329 52.959 A 8.198 8.198 0 0 0 205.3 52.435 A 7.486 7.486 0 0 0 207.767 50.864 A 11.982 11.982 0 0 0 209.737 48.399 Q 210.46 47.22 211.039 45.768 A 21.958 21.958 0 0 0 211.326 45.01 L 222.793 12.998 L 218.066 12.998 L 211.836 31.582 A 727.011 727.011 0 0 1 211.497 32.623 A 596.014 596.014 0 0 1 211.178 33.596 A 79.789 79.789 0 0 0 210.886 34.503 A 62.565 62.565 0 0 0 210.627 35.342 L 210.466 35.342 A 36.696 36.696 0 0 0 210.231 34.503 A 47.122 47.122 0 0 0 209.956 33.596 A 59.424 59.424 0 0 0 209.641 32.623 A 73.759 73.759 0 0 0 209.285 31.582 L 202.598 12.998 L 197.764 12.998 L 208.291 41.116 L 208.291 41.143 A 43.946 43.946 0 0 1 207.57 43.165 Q 206.439 46.087 205.398 47.189 A 3.726 3.726 0 0 1 205.337 47.252 A 4.84 4.84 0 0 1 203.877 48.284 A 4.393 4.393 0 0 1 202.061 48.662 A 10.552 10.552 0 0 1 200.716 48.573 A 11.881 11.881 0 0 1 200.396 48.528 A 12.64 12.64 0 0 1 199.528 48.362 A 9.723 9.723 0 0 1 198.838 48.179 Z M 304.165 32.925 L 299.17 32.925 L 299.17 33.059 A 9.101 9.101 0 0 0 299.693 36.207 A 7.891 7.891 0 0 0 302.124 39.598 A 9.542 9.542 0 0 0 305.288 41.3 Q 307.59 42.056 310.718 42.056 Q 316.357 42.056 319.177 39.639 A 7.715 7.715 0 0 0 321.98 34.041 A 9.627 9.627 0 0 0 321.997 33.462 A 9.1 9.1 0 0 0 321.704 31.083 A 6.411 6.411 0 0 0 319.513 27.688 Q 317.029 25.674 312.463 24.6 Q 307.898 23.525 306.34 22.585 A 3.754 3.754 0 0 1 305.494 21.905 A 2.686 2.686 0 0 1 304.783 20.034 A 3.228 3.228 0 0 1 305.858 17.59 A 4.432 4.432 0 0 1 306.139 17.349 A 4.106 4.106 0 0 1 307.32 16.715 Q 308.557 16.274 310.449 16.274 Q 313.328 16.274 314.74 17.371 A 3.585 3.585 0 0 1 314.813 17.429 A 3.771 3.771 0 0 1 316.204 20.138 A 5.35 5.35 0 0 1 316.223 20.598 L 316.223 20.84 L 321.191 20.84 L 321.191 20.706 A 8.363 8.363 0 0 0 320.685 17.737 A 7.361 7.361 0 0 0 318.237 14.489 A 10.397 10.397 0 0 0 314.382 12.648 Q 312.88 12.264 311.113 12.203 A 19.548 19.548 0 0 0 310.449 12.192 Q 306.516 12.192 303.872 13.722 A 9.198 9.198 0 0 0 302.728 14.502 A 8.089 8.089 0 0 0 300.859 16.573 A 6.979 6.979 0 0 0 299.841 20.303 A 7.252 7.252 0 0 0 300.251 22.795 A 6.22 6.22 0 0 0 302.527 25.741 Q 304.614 27.254 307.838 28.241 A 30.572 30.572 0 0 0 309.778 28.762 Q 314.343 29.836 315.713 30.844 A 3.257 3.257 0 0 1 317.055 33.219 A 4.693 4.693 0 0 1 317.083 33.73 A 3.455 3.455 0 0 1 315.868 36.406 A 4.994 4.994 0 0 1 315.377 36.792 A 6.027 6.027 0 0 1 313.593 37.615 Q 312.345 37.974 310.718 37.974 Q 308.491 37.974 306.92 37.271 A 6.034 6.034 0 0 1 305.964 36.738 A 4.006 4.006 0 0 1 304.21 33.798 A 5.93 5.93 0 0 1 304.165 33.059 L 304.165 32.925 Z M 127.832 12.998 L 127.832 41.25 L 132.827 41.25 L 132.827 21.27 A 8.853 8.853 0 0 1 135.674 17.939 A 7.063 7.063 0 0 1 139.594 16.655 A 8.673 8.673 0 0 1 139.89 16.65 A 8.558 8.558 0 0 1 141.586 16.808 Q 142.605 17.014 143.389 17.49 A 4.607 4.607 0 0 1 144.2 18.114 A 4.294 4.294 0 0 1 145.204 19.673 Q 145.717 20.991 145.718 22.958 A 16.795 16.795 0 0 1 145.718 22.961 L 145.718 41.25 L 150.713 41.25 L 150.713 23.015 A 20.123 20.123 0 0 0 150.523 20.146 Q 150.037 16.785 148.308 15.023 A 6.038 6.038 0 0 0 148.175 14.891 A 8.515 8.515 0 0 0 143.983 12.723 A 12.41 12.41 0 0 0 141.367 12.461 A 11.238 11.238 0 0 0 138.045 12.941 A 10.147 10.147 0 0 0 136.466 13.575 Q 134.25 14.69 132.72 16.624 L 132.559 16.624 L 132.344 12.998 L 127.832 12.998 Z M 224.673 37.598 L 224.673 41.25 L 247.715 41.25 L 247.715 37.168 L 230.635 37.168 L 246.909 16.57 L 246.909 12.998 L 224.888 12.998 L 224.888 17.08 L 240.894 17.08 L 224.673 37.598 Z M 31.931 41.25 L 36.765 41.25 L 36.765 40.82 A 11.289 11.289 0 0 1 36.335 39.548 Q 36.15 38.877 36.017 38.119 A 17.835 17.835 0 0 1 36.013 38.094 A 18.251 18.251 0 0 1 35.771 35.876 A 21.508 21.508 0 0 1 35.745 34.805 L 35.745 21.914 Q 35.745 18.3 34.176 16.022 A 7.384 7.384 0 0 0 32.938 14.636 A 9.241 9.241 0 0 0 29.496 12.784 Q 28.152 12.377 26.545 12.25 A 19.215 19.215 0 0 0 25.029 12.192 A 16.778 16.778 0 0 0 21.702 12.503 Q 19.714 12.905 18.163 13.83 A 9.423 9.423 0 0 0 16.932 14.703 A 9.495 9.495 0 0 0 15.167 16.617 A 6.874 6.874 0 0 0 13.938 20.571 L 13.938 20.706 L 18.906 20.706 L 18.906 20.571 A 4.046 4.046 0 0 1 19.984 17.814 A 5.491 5.491 0 0 1 20.289 17.496 Q 21.672 16.167 24.895 16.167 A 10.246 10.246 0 0 1 26.473 16.28 Q 27.298 16.409 27.948 16.686 A 3.825 3.825 0 0 1 29.434 17.765 A 5.597 5.597 0 0 1 30.564 20.135 A 8.102 8.102 0 0 1 30.75 21.914 L 30.75 23.848 L 24.358 23.848 Q 19.548 23.848 16.286 25.843 A 11.556 11.556 0 0 0 15.684 26.238 Q 12.465 28.493 12.284 32.446 A 10.435 10.435 0 0 0 12.273 32.925 A 10.441 10.441 0 0 0 12.606 35.641 A 7.267 7.267 0 0 0 15.093 39.504 A 10.206 10.206 0 0 0 20.652 41.726 A 13.245 13.245 0 0 0 21.941 41.787 Q 25.432 41.787 27.648 40.444 A 11.365 11.365 0 0 0 29.219 39.31 Q 30.259 38.406 30.857 37.356 A 10.64 10.64 0 0 0 31.246 39.504 A 11.767 11.767 0 0 0 31.485 40.246 Q 31.695 40.828 31.931 41.25 Z M 176.494 41.25 L 181.328 41.25 L 181.328 40.82 A 11.289 11.289 0 0 1 180.898 39.548 Q 180.713 38.877 180.58 38.119 A 17.835 17.835 0 0 1 180.576 38.094 A 18.251 18.251 0 0 1 180.334 35.876 A 21.508 21.508 0 0 1 180.308 34.805 L 180.308 21.914 Q 180.308 18.3 178.739 16.022 A 7.384 7.384 0 0 0 177.501 14.636 A 9.241 9.241 0 0 0 174.059 12.784 Q 172.715 12.377 171.108 12.25 A 19.215 19.215 0 0 0 169.592 12.192 A 16.778 16.778 0 0 0 166.265 12.503 Q 164.277 12.905 162.726 13.83 A 9.423 9.423 0 0 0 161.495 14.703 A 9.495 9.495 0 0 0 159.73 16.617 A 6.874 6.874 0 0 0 158.501 20.571 L 158.501 20.706 L 163.469 20.706 L 163.469 20.571 A 4.046 4.046 0 0 1 164.547 17.814 A 5.491 5.491 0 0 1 164.852 17.496 Q 166.235 16.167 169.458 16.167 A 10.246 10.246 0 0 1 171.036 16.28 Q 171.861 16.409 172.511 16.686 A 3.825 3.825 0 0 1 173.997 17.765 A 5.597 5.597 0 0 1 175.127 20.135 A 8.102 8.102 0 0 1 175.313 21.914 L 175.313 23.848 L 168.921 23.848 Q 164.111 23.848 160.849 25.843 A 11.556 11.556 0 0 0 160.247 26.238 Q 157.028 28.493 156.847 32.446 A 10.435 10.435 0 0 0 156.836 32.925 A 10.441 10.441 0 0 0 157.169 35.641 A 7.267 7.267 0 0 0 159.656 39.504 A 10.206 10.206 0 0 0 165.215 41.726 A 13.245 13.245 0 0 0 166.504 41.787 Q 169.995 41.787 172.211 40.444 A 11.365 11.365 0 0 0 173.782 39.31 Q 174.822 38.406 175.42 37.356 A 10.64 10.64 0 0 0 175.809 39.504 A 11.767 11.767 0 0 0 176.048 40.246 Q 176.258 40.828 176.494 41.25 Z M 188.311 0 L 188.311 41.25 L 193.306 41.25 L 193.306 0 L 188.311 0 Z M 0 2.148 L 0 41.25 L 5.156 41.25 L 5.156 2.148 L 0 2.148 Z M 282.197 12.998 L 282.197 41.25 L 287.192 41.25 L 287.192 21.377 A 7.606 7.606 0 0 1 289.69 18.235 A 6.313 6.313 0 0 1 292.636 17.052 A 8.319 8.319 0 0 1 293.799 16.973 A 15.905 15.905 0 0 1 294.55 16.99 A 12.447 12.447 0 0 1 295.088 17.026 A 11.01 11.01 0 0 1 295.944 17.137 A 9.774 9.774 0 0 1 296.216 17.187 L 296.216 12.568 Q 295.947 12.461 295.303 12.327 A 6.393 6.393 0 0 0 294.461 12.207 A 5.448 5.448 0 0 0 294.067 12.192 A 7.355 7.355 0 0 0 291.818 12.525 A 6.299 6.299 0 0 0 289.905 13.522 A 11.237 11.237 0 0 0 287.31 16.268 A 10.671 10.671 0 0 0 287.085 16.624 L 286.924 16.624 L 286.709 12.998 L 282.197 12.998 Z M 97.458 26.802 L 95.874 31.045 L 117.385 31.045 L 115.828 26.802 L 97.458 26.802 Z M 24.895 27.393 L 30.75 27.393 L 30.75 31.448 A 4.609 4.609 0 0 1 30.035 33.872 Q 29.614 34.565 28.944 35.233 A 10.263 10.263 0 0 1 28.359 35.771 A 8.576 8.576 0 0 1 25.661 37.364 A 7.835 7.835 0 0 1 23.015 37.813 A 10.095 10.095 0 0 1 21.418 37.695 Q 19.652 37.411 18.665 36.443 A 4.508 4.508 0 0 1 17.433 34.194 A 6.762 6.762 0 0 1 17.268 32.656 A 4.855 4.855 0 0 1 17.638 30.732 Q 18.084 29.686 19.068 28.917 A 5.801 5.801 0 0 1 19.202 28.816 Q 20.583 27.799 22.896 27.509 A 16.086 16.086 0 0 1 24.895 27.393 Z M 169.458 27.393 L 175.313 27.393 L 175.313 31.448 A 4.609 4.609 0 0 1 174.598 33.872 Q 174.177 34.565 173.507 35.233 A 10.263 10.263 0 0 1 172.922 35.771 A 8.576 8.576 0 0 1 170.224 37.364 A 7.835 7.835 0 0 1 167.578 37.813 A 10.095 10.095 0 0 1 165.981 37.695 Q 164.215 37.411 163.228 36.443 A 4.508 4.508 0 0 1 161.996 34.194 A 6.762 6.762 0 0 1 161.831 32.656 A 4.855 4.855 0 0 1 162.201 30.732 Q 162.647 29.686 163.631 28.917 A 5.801 5.801 0 0 1 163.765 28.816 Q 165.146 27.799 167.459 27.509 A 16.086 16.086 0 0 1 169.458 27.393 Z" vector-effect="non-scaling-stroke"/></g></svg>